:FULLY-SPECIFIED
:FORCE-ALL-JOINTS-BE-3DOF
:DEGREES
1835
root 6.86761 13.8737 27.7416 1059.45 52.1495 337.532
lfemur -53.4832 28.5891 2.30824
ltibia 68.8165 -0 0
lfoot -6.46614 -8.08563 0.0263837
ltoes -24.7852 0 0
rfemur 4.39853 -3.61132 17.4324
rtibia 48.2854 0 0
rfoot -26.4354 -30.4678 0.00208781
rtoes -26.565 0 0
lowerback 13.7427 4.43593 5.62023
upperback -0.312529 7.34415 5.20438
thorax -8.04566 3.49013 0.910025
lowerneck -4.6131 8.74364 2.66229
upperneck 8.41253 11.6483 -0.965962
head 3.78303 5.82273 -0.205231
lclavicle -1.04904e-13 -3.68384e-14 1.58362e-30
lhumerus 62.5138 18.265 109.513
lradius 9.76727 -0 0
lwrist -82.9528 0 0
lhand -32.2137 42.7901 -0.0128098
lfingers 7.12502 -0 0
lthumb -5.17255 48.5298 0.367656
rclavicle 1.05852e-14 -1.08506e-14 1.74996e-30
rhumerus -70.9363 12.9227 -78.4265
rradius 124.384 -0 0
rwrist -19.8696 180 180
rhand -60.0529 16.4299 -4.41533
rfingers 7.12502 -0 0
rthumb -46.13 -12.1207 -0.510384
1836
root 6.90143 13.8723 27.7502 1059.49 52.1689 337.362
lfemur -53.7706 28.7962 2.20507
ltibia 69.2266 -0 0
lfoot -6.85085 -8.21494 0.0236553
ltoes -24.9559 0 0
rfemur 4.42586 -3.61513 17.4267
rtibia 48.2731 -0 0
rfoot -26.2483 -30.4536 0.00173164
rtoes -26.5882 0 0
lowerback 13.7539 4.46734 5.71752
upperback -0.376067 7.40932 5.21091
thorax -8.10947 3.51522 0.848001
lowerneck -4.44722 9.07827 2.99496
upperneck 8.29951 12.1068 -1.32359
head 3.77306 6.0463 -0.358745
lclavicle -1.06228e-13 -3.33405e-14 1.89243e-30
lhumerus 62.6114 18.0033 109.539
lradius 9.80959 -0 0
lwrist -84.2665 0 0
lhand -32.1352 42.5761 -0.0140472
lfingers 7.12502 -0 0
lthumb -5.12587 54.0109 0.282591
rclavicle 1.21481e-14 -1.23835e-14 1.85669e-30
rhumerus -71.0845 12.9228 -78.7823
rradius 124.498 -0 0
rwrist -20.8384 180 180
rhand -59.0749 8.568 -4.48233
rfingers 7.12502 -0 0
rthumb -45.3647 -14.4598 -1.08095
1837
root 6.93532 13.8741 27.7652 1059.64 52.2104 337.374
lfemur -54.0452 28.993 2.10553
ltibia 69.6188 -0 0
lfoot -7.21369 -8.33687 0.0202865
ltoes -25.1024 0 0
rfemur 4.432 -3.62192 17.4281
rtibia 48.2374 -0 0
rfoot -26.0783 -30.4407 0.00136774
rtoes -26.6551 0 0
lowerback 13.7589 4.5533 5.70455
upperback -0.428659 7.52225 5.17295
thorax -8.16406 3.56668 0.790352
lowerneck -4.20918 9.43602 3.3133
upperneck 8.09428 12.5962 -1.66263
head 3.71913 6.28656 -0.508476
lclavicle -1.07643e-13 -2.96032e-14 2.13304e-30
lhumerus 62.7028 17.7575 109.563
lradius 9.82434 0 0
lwrist -85.3964 0 0
lhand -32.0538 42.3543 -0.0150197
lfingers 7.12502 -0 0
lthumb -5.09161 58.8457 0.204152
rclavicle 1.37439e-14 -1.39487e-14 1.92253e-30
rhumerus -71.2572 12.9219 -79.197
rradius 124.614 -0 0
rwrist -22.3719 180 180
rhand -58.0969 0.706062 -4.41533
rfingers 7.12502 -0 0
rthumb -44.3158 -17.5711 -1.78782
1838
root 6.96314 13.8698 27.7648 1059.77 52.2613 337.314
lfemur -54.303 29.1767 2.01122
ltibia 69.9871 -0 0
lfoot -7.5484 -8.44933 0.0164941
ltoes -25.2216 0 0
rfemur 4.44985 -3.64169 17.4321
rtibia 48.1805 -0 0
rfoot -25.9277 -30.4293 0.00101358
rtoes -26.7621 0 0
lowerback 13.8357 4.57918 5.8176
upperback -0.486375 7.58529 5.15208
thorax -8.25247 3.58771 0.685735
lowerneck -3.99529 9.86151 3.6036
upperneck 7.8791 13.183 -2.05905
head 3.67642 6.57219 -0.6649
lclavicle -1.09119e-13 -2.57063e-14 2.28562e-30
lhumerus 62.7866 17.5315 109.585
lradius 9.82702 -0 0
lwrist -86.3178 0 0
lhand -31.9704 42.127 -0.0156895
lfingers 7.12502 -0 0
lthumb -5.06773 62.9624 0.135284
rclavicle 1.53561e-14 -1.55301e-14 1.94478e-30
rhumerus -71.4514 12.9193 -79.6633
rradius 124.729 -0 0
rwrist -24.4036 180 180
rhand -57.1487 -7.05906 -4.21875
rfingers 7.12502 -0 0
rthumb -42.9942 -21.3622 -2.56679
1839
root 6.99258 13.871 27.7785 1059.89 52.344 337.306
lfemur -54.54 29.3448 1.92385
ltibia 70.3257 -0 0
lfoot -7.84871 -8.55021 0.0125323
ltoes -25.3105 0 0
rfemur 4.47859 -3.6735 17.4386
rtibia 48.1043 -0 0
rfoot -25.7991 -30.4195 0.000687209
rtoes -26.9053 0 0
lowerback 13.8046 4.6516 5.81218
upperback -0.490953 7.67613 5.134
thorax -8.23616 3.63188 0.654204
lowerneck -3.75778 10.2592 3.82792
upperneck 7.56455 13.7303 -2.41243
head 3.58866 6.83912 -0.803596
lclavicle -1.10624e-13 -2.17296e-14 2.33787e-30
lhumerus 62.8614 17.3294 109.604
lradius 9.8348 -0 0
lwrist -87.0064 0 0
lhand -31.8858 41.8964 -0.0160309
lfingers 7.12502 -0 0
lthumb -5.05209 66.2893 0.0784896
rclavicle 1.69684e-14 -1.71114e-14 1.92253e-30
rhumerus -71.6639 12.9148 -80.1738
rradius 124.843 -0 0
rwrist -26.8671 180 180
rhand -56.2575 -14.6313 -3.90545
rfingers 7.12502 -0 0
rthumb -41.4158 -25.7395 -3.35098
1840
root 7.01257 13.8631 27.7881 1059.83 52.3936 337.041
lfemur -54.7518 29.4943 1.84513
ltibia 70.6285 -0 0
lfoot -8.10844 -8.63745 0.00867926
ltoes -25.366 0 0
rfemur 4.51737 -3.71644 17.4473
rtibia 48.0109 -0 0
rfoot -25.6948 -30.4116 0.000406547
rtoes -27.0809 0 0
lowerback 13.8542 4.69859 5.96041
upperback -0.532127 7.77334 5.14591
thorax -8.29048 3.67058 0.561385
lowerneck -3.55389 10.6759 4.12353
upperneck 7.33646 14.3037 -2.80322
head 3.55277 7.11972 -0.958493
lclavicle -1.1213e-13 -1.7753e-14 2.28562e-30
lhumerus 62.9257 17.1551 109.621
lradius 9.84731 -0 0
lwrist -87.4374 0 0
lhand -31.8007 41.6646 -0.0160309
lfingers 7.12502 -0 0
lthumb -5.04264 68.7545 0.0358699
rclavicle 1.85642e-14 -1.86767e-14 1.85669e-30
rhumerus -71.8917 12.9079 -80.721
rradius 124.955 -0 0
rwrist -29.6959 180 180
rhand -55.4457 -21.9158 -3.49551
rfingers 7.12502 -0 0
rthumb -39.605 -30.6066 -4.07473
1841
root 7.03579 13.8583 27.8035 1059.92 52.4662 337.001
lfemur -54.9345 29.6228 1.77683
ltibia 70.8896 -0 0
lfoot -8.32133 -8.70894 0.00522628
ltoes -25.3852 0 0
rfemur 4.56534 -3.76958 17.458
rtibia 47.9022 -0 0
rfoot -25.6173 -30.4057 0.000188645
rtoes -27.285 0 0
lowerback 13.851 4.76495 5.95738
upperback -0.548253 7.85945 5.12104
thorax -8.30109 3.71091 0.519447
lowerneck -3.31208 11.0897 4.37596
upperneck 7.11322 14.8725 -3.12608
head 3.50572 7.40044 -1.08718
lclavicle -1.13606e-13 -1.38561e-14 2.13304e-30
lhumerus 62.9783 17.0126 109.634
lradius 9.86416 -0 0
lwrist -87.5865 0 0
lhand -31.7161 41.434 -0.0156895
lfingers 7.12502 -0 0
lthumb -5.0377 70.2863 0.00919783
rclavicle 2.0127e-14 -2.02095e-14 1.74996e-30
rhumerus -72.1316 12.8983 -81.2976
rradius 125.062 -0 0
rwrist -32.8237 180 180
rhand -54.7297 -28.8192 -3.01452
rfingers 7.12502 0 0
rthumb -37.5969 -35.8628 -4.67795
1842
root 7.05387 13.8495 27.8167 1059.84 52.509 336.752
lfemur -55.0837 29.7274 1.72071
ltibia 71.1031 -0 0
lfoot -8.48112 -8.7626 0.0024599
ltoes -25.3993 0 0
rfemur 4.62168 -3.832 17.4705
rtibia 47.7804 -0 0
rfoot -25.569 -30.4021 4.88703e-05
rtoes -27.5139 0 0
lowerback 13.8824 4.8427 6.12938
upperback -0.572124 7.99617 5.11497
thorax -8.31852 3.76838 0.389456
lowerneck -3.16149 11.436 4.52799
upperneck 6.93559 15.3481 -3.36991
head 3.47416 7.63416 -1.17371
lclavicle -1.15021e-13 -1.01188e-14 1.89243e-30
lhumerus 63.0176 16.9058 109.644
lradius 9.88499 -0 0
lwrist -87.561 0 0
lhand -31.6327 41.2067 -0.0150197
lfingers 7.12502 -0 0
lthumb -5.03616 70.8128 0
rclavicle 2.16404e-14 -2.16939e-14 1.60675e-30
rhumerus -72.3807 12.8858 -81.8963
rradius 125.164 -0 0
rwrist -36.184 180 180
rhand -54.1188 -35.2497 -2.49147
rfingers 7.12502 -0 0
rthumb -35.4377 -41.4023 -5.11048
1843
root 7.07069 13.8396 27.8276 1059.84 52.5896 336.581
lfemur -55.1954 29.8055 1.67854
ltibia 71.263 -0 0
lfoot -8.58158 -8.79632 0.000644165
ltoes -25.4402 0 0
rfemur 4.68554 -3.90278 17.4846
rtibia 47.6475 -0 0
rfoot -25.5524 -30.4008 0
rtoes -27.7638 0 0
lowerback 13.9259 4.89383 6.26377
upperback -0.615112 8.09056 5.07773
thorax -8.36415 3.80434 0.253318
lowerneck -2.99844 11.767 4.75765
upperneck 6.81045 15.8038 -3.63549
head 3.46989 7.85955 -1.27866
lclavicle -1.16345e-13 -6.62092e-15 1.58362e-30
lhumerus 63.0422 16.8389 109.65
lradius 9.9094 -0 0
lwrist -87.487 0 0
lhand -31.5513 40.9849 -0.0140472
lfingers 7.12502 -0 0
lthumb -5.03101 70.8065 -6.99739e-05
rclavicle 2.30879e-14 -2.31137e-14 1.4331e-30
rhumerus -72.6356 12.8704 -82.5096
rradius 125.259 -0 0
rwrist -39.7104 180 180
rhand -53.6154 -41.1164 -1.95669
rfingers 7.12502 -0 0
rthumb -33.1833 -47.1141 -5.33621
1844
root 7.09094 13.8355 27.8427 1060.05 52.7535 336.729
lfemur -55.2655 29.8543 1.65203
ltibia 71.3632 -0 0
lfoot -8.61645 -8.80803 0
ltoes -25.5057 0 0
rfemur 4.75607 -3.98099 17.5002
rtibia 47.5054 -0 0
rfoot -25.5592 -30.3989 -1.99645e-05
rtoes -28.0308 0 0
lowerback 13.9066 4.96888 6.19428
upperback -0.626675 8.1661 4.97934
thorax -8.35725 3.84026 0.17351
lowerneck -2.83295 12.0565 4.99763
upperneck 6.68938 16.2024 -3.88242
head 3.46557 8.05774 -1.38241
lclavicle -1.17549e-13 -3.44224e-15 1.23286e-30
lhumerus 63.0507 16.8157 109.652
lradius 9.93703 -0 0
lwrist -87.3687 0 0
lhand -31.4728 40.7709 -0.0128098
lfingers 7.12502 -0 0
lthumb -5.01608 70.7883 -0.000269625
rclavicle 2.44529e-14 -2.44526e-14 1.23647e-30
rhumerus -72.8935 12.8521 -83.1301
rradius 125.346 -0 0
rwrist -43.3364 180 180
rhand -53.2158 -46.3292 -1.43999
rfingers 7.12502 -0 0
rthumb -30.8964 -52.8839 -5.33621
1845
root 7.10641 13.8272 27.8577 1059.98 52.8299 336.541
lfemur -55.2897 29.8712 1.64284
ltibia 71.398 0 0
lfoot -8.62456 -8.79492 -0.000153569
ltoes -25.5937 0 0
rfemur 4.83244 -4.06572 17.5169
rtibia 47.3562 -0 0
rfoot -25.5787 -30.3935 -7.62386e-05
rtoes -28.3112 0 0
lowerback 13.9428 5.01785 6.30166
upperback -0.627668 8.25324 4.98049
thorax -8.36207 3.87744 0.096428
lowerneck -2.71491 12.3154 5.07414
upperneck 6.58945 16.5617 -4.05769
head 3.45329 8.23437 -1.43738
lclavicle -1.18601e-13 -6.62551e-16 8.71409e-31
lhumerus 63.0382 16.7878 109.613
lradius 9.9675 -0 0
lwrist -87.2102 0 0
lhand -31.3979 40.5667 -0.0113565
lfingers 7.12502 -0 0
lthumb -4.99214 70.7592 -0.000579711
rclavicle 2.57191e-14 -2.56945e-14 1.02557e-30
rhumerus -73.1511 12.8311 -83.7505
rradius 125.423 -0 0
rwrist -46.9956 180 180
rhand -52.9116 -50.7979 -0.969294
rfingers 7.12502 -0 0
rthumb -28.642 -58.5957 -5.11048
1846
root 7.12223 13.8195 27.8725 1059.81 52.9056 336.299
lfemur -55.297 29.8633 1.64552
ltibia 71.4092 -0 0
lfoot -8.6479 -8.75723 -0.000584744
ltoes -25.702 0 0
rfemur 4.91381 -4.15604 17.5345
rtibia 47.2019 -0 0
rfoot -25.6097 -30.385 -0.000161973
rtoes -28.6011 0 0
lowerback 14.0252 5.05197 6.49402
upperback -0.649853 8.3384 4.9551
thorax -8.40004 3.90704 -0.0593166
lowerneck -2.56773 12.5399 5.20553
upperneck 6.54827 16.8724 -4.18184
head 3.45479 8.39011 -1.48748
lclavicle -1.19472e-13 1.63834e-15 5.33591e-31
lhumerus 63.0022 16.7066 109.501
lradius 10.0004 -0 0
lwrist -87.0153 0 0
lhand -31.3275 40.3747 -0.00974607
lfingers 7.12502 -0 0
lthumb -4.95999 70.7201 -0.000977105
rclavicle 2.687e-14 -2.68233e-14 8.10072e-31
rhumerus -73.4053 12.8077 -84.3634
rradius 125.489 -0 0
rwrist -50.6216 180 180
rhand -52.6917 -54.4322 -0.569677
rfingers 7.12502 -0 0
rthumb -26.4828 -64.1352 -4.67795
1847
root 7.14038 13.8111 27.8871 1059.8 53.0468 336.267
lfemur -55.3182 29.8403 1.65329
ltibia 71.4418 -0 0
lfoot -8.68492 -8.69741 -0.0012375
ltoes -25.8286 0 0
rfemur 4.99935 -4.25103 17.553
rtibia 47.0447 -0 0
rfoot -25.651 -30.3735 -0.000268981
rtoes -28.8967 0 0
lowerback 14.0357 5.04735 6.4916
upperback -0.621473 8.32886 4.94195
thorax -8.37337 3.90348 -0.0697426
lowerneck -2.41676 12.787 5.39823
upperneck 6.51466 17.2225 -4.43587
head 3.48252 8.5631 -1.58433
lclavicle -1.20132e-13 3.38063e-15 2.5451e-31
lhumerus 62.9448 16.5762 109.321
lradius 10.0354 -0 0
lwrist -86.7881 0 0
lhand -31.2623 40.197 -0.00804558
lfingers 7.12502 -0 0
lthumb -4.92041 70.6719 -0.00143623
rclavicle 2.7889e-14 -2.78228e-14 6.00335e-31
rhumerus -73.6532 12.7823 -84.9614
rradius 125.543 -0 0
rwrist -54.148 180 180
rhand -52.5445 -57.1414 -0.263019
rfingers 7.12502 -0 0
rthumb -24.4747 -69.3914 -4.07473
